<?xml version="1.0" standalone="no"?>
<!DOCTYPE svg PUBLIC "-//W3C//DTD SVG 20010904//EN"
 "http://www.w3.org/TR/2001/REC-SVG-20010904/DTD/svg10.dtd">
<svg version="1.0" xmlns="http://www.w3.org/2000/svg"
 width="260.000000pt" height="260.000000pt" viewBox="0 0 260.000000 260.000000"
 preserveAspectRatio="xMidYMid meet">
<metadata>
Created by potrace 1.11, written by Peter Selinger 2001-2013
</metadata>
<g transform="translate(0.000000,260.000000) scale(0.100000,-0.100000)"
fill="#000000" stroke="none">
<path d="M450 1300 l0 -1300 860 0 860 0 0 1300 0 1300 -860 0 -860 0 0 -1300z
m530 590 l0 -290 180 0 180 0 0 -125 0 -125 -350 0 -350 0 0 415 0 415 170 0
170 0 0 -290z m540 281 c0 -5 25 -62 56 -127 l56 -119 53 125 53 125 172 3
c94 1 169 -1 167 -5 -2 -5 -70 -123 -151 -264 l-146 -256 0 -152 0 -151 -170
0 -170 0 0 150 0 149 -140 250 c-77 138 -143 258 -146 266 -5 13 18 15 180 15
102 0 186 -4 186 -9z m94 -947 c87 -23 226 -98 226 -123 0 -4 -32 -42 -70 -84
l-71 -76 -83 40 c-122 59 -236 64 -236 11 0 -25 27 -39 175 -87 189 -61 256
-110 280 -203 25 -96 -19 -210 -102 -262 -85 -54 -134 -65 -288 -65 -120 0
-150 3 -209 23 -79 27 -147 60 -193 95 l-33 24 72 91 71 92 31 -21 c139 -93
336 -129 336 -60 0 28 -16 37 -145 81 -183 63 -246 103 -286 181 -25 50 -25
140 0 194 65 143 295 208 525 149z m-654 -152 c0 -195 -12 -245 -75 -307 -32
-33 -60 -49 -110 -64 -37 -12 -82 -21 -101 -21 -33 0 -34 1 -34 38 0 34 4 39
42 57 47 22 73 55 83 103 l7 32 -66 0 -66 0 0 160 0 160 160 0 160 0 0 -158z"/>
</g>
</svg>
