<svg xmlns="http://www.w3.org/2000/svg" xmlns:xlink="http://www.w3.org/1999/xlink" viewBox="0 1 1920 1080">
  <defs>
    <style>
      .cls-1, .cls-4 {
        fill: none;
      }

      .cls-2 {
        clip-path: url(#clip-path);
      }

      .cls-3 {
        fill: #fff;
      }

      .cls-4 {
        stroke: #fff;
        stroke-width: 1.702px;
      }
    </style>
    <clipPath id="clip-path">
      <path id="pfad" class="cls-1" d="M0-86.557H1920v-1080H0Z" transform="translate(0 1324.1)"/>
    </clipPath>
  </defs>
  <g id="gruppe" class="cls-2" transform="translate(0 -156.543)">
    <g id="gruppe-2" data-name="gruppe">
      <path id="pfad-2" data-name="pfad" class="cls-3" d="M0,0C14.971,0,22.451-7,22.451-16.035c0-15.455-26.48-14.534-26.48-19.408,0-1.557,1.565-2.267,3.888-2.267,3.743,0,9.317,2.048,14.26,5.236l8.332-9.182C17.867-45.965,10.592-49.989-.7-49.989c-14.046,0-21.113,7.061-21.113,15.464C-21.818-19,4.1-19.415,4.1-14.552c0,1.634-1.485,2.261-4.593,2.261-4.3,0-11.085-2.677-16.232-6.708L-24.918-8.614C-19.487-3.678-10.235,0,0,0M-45.843-17.8c11.585,0,17.975-5.883,17.975-15.466v-15.88H-45.843v18.281h7.1c0,4.779-2.8,8.274-7.1,8.274V-17.8m81.686-85.217H16.5L10.29-88.539,3.58-103.016H-17.454L-.726-73.078v17.084H18.62V-72.8ZM-45.843-55.994V-103.02h19.349v33.182H-5.957v13.844Z" transform="translate(622.425 284.364)"/>
    </g>
    <g id="gruppe-3" data-name="gruppe">
      <path id="pfad-3" data-name="pfad" class="cls-4" d="M0,0-40-40,0-80" transform="translate(454.02 411.543)"/>
    </g>
    <g id="gruppe-4" data-name="gruppe">
      <path id="pfad-4" data-name="pfad" class="cls-4" d="M0,0,40-40,0-80" transform="translate(1463.02 411.543)"/>
    </g>
  </g>
</svg>
